<svg width="50" height="50" viewBox="0 0 50 50" fill="none" xmlns="http://www.w3.org/2000/svg">
<g opacity="0.8">
<path d="M43.9374 14.5417C42.1666 12.5833 39.2082 11.6042 34.9166 11.6042H34.4166V11.5208C34.4166 8.02083 34.4166 3.6875 26.5832 3.6875H23.4166C15.5832 3.6875 15.5832 8.04167 15.5832 11.5208V11.625H15.0832C10.7707 11.625 7.83325 12.6042 6.06242 14.5625C3.99992 16.8542 4.06242 19.9375 4.27075 22.0417L4.29158 22.1875L4.47737 24.1383C4.49164 24.2881 4.57228 24.4233 4.69789 24.5061C5.13026 24.7911 6.16678 25.4677 6.74992 25.7917C7.04158 25.9792 7.35408 26.1458 7.66658 26.3125C11.2291 28.2708 15.1457 29.5833 19.1249 30.2292C19.3124 32.1875 20.1666 34.4792 24.7291 34.4792C29.2916 34.4792 30.1874 32.2083 30.3332 30.1875C34.5832 29.5 38.6874 28.0208 42.3957 25.8542C42.5207 25.7917 42.6041 25.7292 42.7082 25.6667C43.6029 25.161 44.5338 24.5283 45.3654 23.921C45.478 23.8388 45.5503 23.7129 45.5657 23.5744L45.6249 23.0417L45.7291 22.0625C45.7499 21.9375 45.7499 21.8333 45.7707 21.6875C45.9374 19.5833 45.8957 16.7083 43.9374 14.5417ZM27.2707 28.8125C27.2707 31.0208 27.2707 31.3542 24.7082 31.3542C22.1457 31.3542 22.1457 30.9583 22.1457 28.8333V26.2083H27.2707V28.8125ZM18.5624 11.6042V11.5208C18.5624 7.97917 18.5624 6.66667 23.4166 6.66667H26.5832C31.4374 6.66667 31.4374 8 31.4374 11.5208V11.625H18.5624V11.6042Z" fill="#101010"/>
<path d="M44.3618 28.1926C44.7142 28.0217 45.121 28.3012 45.0856 28.6912L44.25 37.8959C43.8125 42.0626 42.1042 46.3126 32.9375 46.3126H17.0625C7.89583 46.3126 6.1875 42.0626 5.75 37.9167L4.95429 29.1639C4.91925 28.7785 5.31566 28.4986 5.6672 28.6606C7.71688 29.6048 13.2456 32.0863 16.2786 32.815C16.4437 32.8546 16.5768 32.9718 16.6424 33.1284C17.848 36.0069 20.6392 37.5417 24.7292 37.5417C28.7786 37.5417 31.608 35.9479 32.8158 33.0662C32.8815 32.9094 33.0144 32.7923 33.1797 32.7526C36.3914 31.9808 42.2318 29.2251 44.3618 28.1926Z" fill="#101010"/>
</g>
</svg>
