<svg width="50" height="50" viewBox="0 0 50 50" fill="none" xmlns="http://www.w3.org/2000/svg">
<g opacity="0.8">
<path d="M22.9376 41.7084C33.3044 41.7084 41.7084 33.3044 41.7084 22.9376C41.7084 12.5707 33.3044 4.16675 22.9376 4.16675C12.5707 4.16675 4.16675 12.5707 4.16675 22.9376C4.16675 33.3044 12.5707 41.7084 22.9376 41.7084Z" fill="#101010"/>
<path d="M45.8125 39.4792C45.125 38.2083 43.6667 37.5 41.7084 37.5C40.2292 37.5 38.9584 38.1042 38.2084 39.1458C37.4584 40.1875 37.2917 41.5833 37.75 42.9792C38.6459 45.6875 40.2084 46.2917 41.0625 46.3958C41.1875 46.4167 41.3125 46.4167 41.4584 46.4167C42.375 46.4167 43.7917 46.0208 45.1667 43.9583C46.2709 42.3542 46.4792 40.75 45.8125 39.4792Z" fill="#101010"/>
</g>
</svg>
