<svg width="30" height="30" viewBox="0 0 30 30" fill="none" xmlns="http://www.w3.org/2000/svg">
<path d="M24.375 10C26.1009 10 27.5 8.60089 27.5 6.875C27.5 5.14911 26.1009 3.75 24.375 3.75C22.6491 3.75 21.25 5.14911 21.25 6.875C21.25 8.60089 22.6491 10 24.375 10Z" fill="white"/>
<path d="M24.375 10C26.1009 10 27.5 8.60089 27.5 6.875C27.5 5.14911 26.1009 3.75 24.375 3.75C22.6491 3.75 21.25 5.14911 21.25 6.875C21.25 8.60089 22.6491 10 24.375 10Z" fill="white"/>
<path d="M25.9 11.6375C25.025 11.9125 24.0625 11.9625 23.0625 11.7125C21.3875 11.275 20.025 9.9375 19.5625 8.2625C19.3375 7.45 19.325 6.65 19.4625 5.925C19.625 5.125 19.0625 4.375 18.2625 4.375H8.75C5 4.375 2.5 6.25 2.5 10.625V19.375C2.5 23.75 5 25.625 8.75 25.625H21.25C25 25.625 27.5 23.75 27.5 19.375V12.825C27.5 12 26.7 11.375 25.9 11.6375ZM19.4 13.9375L17.925 15.1125C17.1 15.775 16.05 16.1 15 16.1C13.95 16.1 12.8875 15.775 12.075 15.1125L8.1625 11.9875C7.7625 11.6625 7.7 11.0625 8.0125 10.6625C8.3375 10.2625 8.925 10.1875 9.325 10.5125L13.2375 13.6375C14.1875 14.4 15.8 14.4 16.75 13.6375L18.225 12.4625C18.625 12.1375 19.225 12.2 19.5375 12.6125C19.8625 13.0125 19.8 13.6125 19.4 13.9375Z" fill="white"/>
</svg>
