<svg width="37" height="24" viewBox="0 0 37 24" fill="none" xmlns="http://www.w3.org/2000/svg">
<path d="M22.5918 11.8418C22.5918 14.0091 22.1386 15.942 21.232 17.6405C20.3255 19.3285 19.0334 20.6466 17.3558 21.5948C15.6782 22.5534 13.7557 23.0328 11.5884 23.0328C10.0358 23.0328 8.551 22.7306 7.13389 22.1262C5.71678 21.5219 4.49765 20.7091 3.4765 19.688C2.45535 18.6668 1.6426 17.4477 1.03825 16.0306C0.433891 14.6135 0.131714 13.1286 0.131714 11.5761C0.131714 10.0235 0.433891 8.53867 1.03825 7.12156C1.6426 5.70445 2.45535 4.48532 3.4765 3.46417C4.49765 2.44302 5.71678 1.63027 7.13389 1.02592C8.551 0.421562 10.0358 0.119385 11.5884 0.119385C14.5685 0.119385 17.1266 1.1197 19.2627 3.12032L16.1523 6.10562C14.9332 4.92817 13.4119 4.33945 11.5884 4.33945C10.3068 4.33945 9.11888 4.66246 8.02479 5.3085C6.94112 5.95453 6.08148 6.83501 5.44587 7.94994C4.81025 9.05445 4.49244 10.2632 4.49244 11.5761C4.49244 12.889 4.81025 14.1029 5.44587 15.2178C6.08148 16.3223 6.94112 17.1976 8.02479 17.8436C9.11888 18.4897 10.3068 18.8127 11.5884 18.8127C12.4533 18.8127 13.2452 18.6929 13.9641 18.4532C14.6935 18.2135 15.2927 17.9166 15.7616 17.5623C16.2305 17.1976 16.6368 16.786 16.9807 16.3275C17.335 15.8691 17.5903 15.4366 17.7466 15.0303C17.9133 14.6239 18.0279 14.2384 18.0904 13.8737H11.5884V9.93494H22.4043C22.5293 10.5914 22.5918 11.227 22.5918 11.8418ZM36.1429 9.93494V13.2172H32.8763V16.4838H29.594V13.2172H26.3274V9.93494H29.594V6.6683H32.8763V9.93494H36.1429Z" fill="white"/>
</svg>
