<svg width="25" height="21" viewBox="0 0 25 21" fill="none" xmlns="http://www.w3.org/2000/svg">
<path d="M24.6327 2.948C23.9345 3.96915 23.0905 4.83922 22.1006 5.55819C22.111 5.70407 22.1162 5.92289 22.1162 6.21464C22.1162 7.56923 21.9183 8.92382 21.5223 10.2784C21.1264 11.6226 20.522 12.9146 19.7092 14.1546C18.9069 15.3946 17.9483 16.4939 16.8334 17.4525C15.7184 18.4007 14.3743 19.1614 12.8009 19.7345C11.2274 20.2971 9.54463 20.5785 7.75241 20.5785C4.92861 20.5785 2.34448 19.823 0 18.3122C0.364697 18.3538 0.771073 18.3747 1.21913 18.3747C3.56361 18.3747 5.6528 17.6557 7.4867 16.2178C6.39261 16.1969 5.41314 15.8635 4.54829 15.2174C3.68344 14.561 3.0895 13.7274 2.76648 12.7167C3.11034 12.7688 3.42815 12.7948 3.71991 12.7948C4.16796 12.7948 4.61081 12.7375 5.04844 12.6229C3.88141 12.3832 2.91236 11.8049 2.14129 10.888C1.38064 9.9606 1.00031 8.88735 1.00031 7.66822V7.6057C1.70886 8.00166 2.46952 8.21526 3.28227 8.24652C2.59456 7.78805 2.04751 7.1889 1.64113 6.44909C1.23476 5.70928 1.03157 4.90695 1.03157 4.04209C1.03157 3.12514 1.26081 2.27592 1.71928 1.49443C2.98009 3.04699 4.51182 4.29217 6.31446 5.22996C8.12753 6.15733 10.0656 6.67312 12.1288 6.77732C12.0454 6.38136 12.0037 5.99582 12.0037 5.62071C12.0037 4.22444 12.4935 3.03657 13.4729 2.0571C14.4628 1.06721 15.6559 0.572266 17.0522 0.572266C18.511 0.572266 19.7405 1.10368 20.7408 2.16651C21.8766 1.94769 22.9446 1.54132 23.9449 0.947382C23.5594 2.14567 22.8196 3.07304 21.7255 3.7295C22.6946 3.6253 23.6636 3.3648 24.6327 2.948Z" fill="white"/>
</svg>
