<svg width="250" height="126" viewBox="0 0 250 126" fill="none" xmlns="http://www.w3.org/2000/svg">
<path d="M5.7 100H19.6V72.4C19.6 65.9 23.9 61.2 30 61.2C35.8 61.2 39.7 65.6 39.7 71.7V100H53.7V68.6C53.7 57 46.3 48.8 35 48.8C28 48.8 22.4 51.7 19.6 56.6V27.7H5.7V100ZM87.5891 100.8C99.9891 100.8 109.589 93.8 111.589 82.9H97.9891C96.8891 87.2 93.1891 89.4 87.5891 89.4C80.5891 89.4 76.0891 85 75.0891 77.9H111.289C111.389 76.8 111.489 75.3 111.489 73.4C111.489 61.9 104.389 48.8 86.5891 48.8C69.4891 48.8 61.6891 61.9 61.6891 74.7C61.6891 87.4 70.4891 100.8 87.5891 100.8ZM75.2891 69.1C76.4891 62.1 80.2891 59 86.5891 59C93.2891 59 97.1891 63.5 97.5891 69.1H75.2891ZM120.348 100H134.248V27.7H120.348V100ZM145.641 100H159.541V27.7H145.641V100ZM194.734 100.8C210.234 100.8 221.334 89.8 221.334 74.8C221.334 59.8 210.234 48.8 194.734 48.8C179.234 48.8 168.134 59.8 168.134 74.8C168.134 89.8 179.234 100.8 194.734 100.8ZM182.134 74.8C182.134 66.4 187.234 60.7 194.734 60.7C202.234 60.7 207.334 66.4 207.334 74.8C207.334 83.1 202.234 88.8 194.734 88.8C187.234 88.8 182.134 83.1 182.134 74.8Z" fill="#FEC00A"/>
<path d="M230 77.6V92H245V77.6H230Z" fill="#101010"/>
</svg>
