<svg width="84" height="28" viewBox="0 0 84 28" fill="none" xmlns="http://www.w3.org/2000/svg">
<path d="M7.3715 22.08C5.9315 22.08 4.6715 21.77 3.5915 21.15C2.5315 20.51 1.7115 19.61 1.1315 18.45C0.571504 17.27 0.291504 15.88 0.291504 14.28C0.291504 12.68 0.571504 11.3 1.1315 10.14C1.7115 8.96 2.5215 8.06 3.5615 7.44C4.6215 6.8 5.8615 6.48 7.2815 6.48C8.1415 6.48 8.8915 6.61 9.5315 6.87C10.1715 7.11 10.7015 7.46 11.1215 7.92V0H16.0715V21.84H11.1215V20.55C10.7215 21.05 10.1915 21.43 9.5315 21.69C8.8715 21.95 8.1515 22.08 7.3715 22.08ZM8.2415 17.88C8.8615 17.88 9.4115 17.73 9.8915 17.43C10.3715 17.13 10.7415 16.71 11.0015 16.17C11.2615 15.63 11.3915 15 11.3915 14.28C11.3915 13.2 11.1015 12.33 10.5215 11.67C9.9415 11.01 9.1815 10.68 8.2415 10.68C7.6215 10.68 7.0715 10.83 6.5915 11.13C6.1315 11.43 5.7715 11.85 5.5115 12.39C5.2515 12.93 5.1215 13.56 5.1215 14.28C5.1215 15.36 5.4015 16.23 5.9615 16.89C6.5415 17.55 7.3015 17.88 8.2415 17.88Z" fill="white"/>
<path d="M24.6398 22.08C23.3998 22.08 22.2898 21.86 21.3098 21.42C20.3498 20.96 19.5898 20.32 19.0298 19.5C18.4698 18.68 18.1698 17.73 18.1298 16.65H22.2998C22.3798 17.19 22.6298 17.63 23.0498 17.97C23.4898 18.29 24.0198 18.45 24.6398 18.45C25.1598 18.45 25.5798 18.35 25.8998 18.15C26.2398 17.95 26.4098 17.69 26.4098 17.37C26.4098 17.07 26.2998 16.84 26.0798 16.68C25.8598 16.5 25.5898 16.37 25.2698 16.29C24.9698 16.19 24.4898 16.08 23.8298 15.96C22.7698 15.78 21.8898 15.57 21.1898 15.33C20.4898 15.07 19.8798 14.62 19.3598 13.98C18.8398 13.32 18.5798 12.39 18.5798 11.19C18.5798 10.29 18.8198 9.49 19.2998 8.79C19.7798 8.07 20.4298 7.51 21.2498 7.11C22.0898 6.69 23.0098 6.48 24.0098 6.48C25.2498 6.48 26.3498 6.69 27.3098 7.11C28.2698 7.53 29.0198 8.12 29.5598 8.88C30.1198 9.64 30.4198 10.53 30.4598 11.55H26.2598C26.1798 11.05 25.9498 10.64 25.5698 10.32C25.1898 9.98 24.7398 9.81 24.2198 9.81C23.7398 9.81 23.3598 9.91 23.0798 10.11C22.7998 10.31 22.6598 10.6 22.6598 10.98C22.6598 11.3 22.7698 11.55 22.9898 11.73C23.2098 11.89 23.4898 12.01 23.8298 12.09C24.1898 12.17 24.6798 12.25 25.2998 12.33C26.3998 12.47 27.2998 12.66 27.9998 12.9C28.7198 13.12 29.3398 13.57 29.8598 14.25C30.3998 14.91 30.6698 15.88 30.6698 17.16C30.6698 18.14 30.4198 19 29.9198 19.74C29.4198 20.48 28.7098 21.06 27.7898 21.48C26.8898 21.88 25.8398 22.08 24.6398 22.08Z" fill="white"/>
<path d="M34.4444 24.18H41.4044C41.9044 24.18 42.3144 23.99 42.6344 23.61C42.9544 23.25 43.1144 22.79 43.1144 22.23V20.55C42.7144 21.03 42.1744 21.41 41.4944 21.69C40.8344 21.95 40.1144 22.08 39.3344 22.08C37.8944 22.08 36.6344 21.77 35.5544 21.15C34.4944 20.51 33.6744 19.61 33.0944 18.45C32.5344 17.27 32.2544 15.88 32.2544 14.28C32.2544 12.68 32.5344 11.3 33.0944 10.14C33.6744 8.96 34.4844 8.06 35.5244 7.44C36.5844 6.8 37.8244 6.48 39.2444 6.48C40.1044 6.48 40.8544 6.61 41.4944 6.87C42.1344 7.11 42.6644 7.46 43.0844 7.92V6.72H48.0344V22.83C48.0344 23.87 47.7944 24.77 47.3144 25.53C46.8544 26.31 46.1844 26.91 45.3044 27.33C44.4444 27.75 43.4444 27.96 42.3044 27.96H34.4444V24.18ZM40.2044 17.88C40.8244 17.88 41.3744 17.73 41.8544 17.43C42.3344 17.13 42.7044 16.71 42.9644 16.17C43.2244 15.63 43.3544 15 43.3544 14.28C43.3544 13.18 43.0644 12.31 42.4844 11.67C41.9244 11.01 41.1644 10.68 40.2044 10.68C39.5844 10.68 39.0344 10.83 38.5544 11.13C38.0944 11.43 37.7344 11.85 37.4744 12.39C37.2144 12.93 37.0844 13.56 37.0844 14.28C37.0844 15.38 37.3644 16.26 37.9244 16.92C38.5044 17.56 39.2644 17.88 40.2044 17.88Z" fill="white"/>
<path d="M50.9027 6.72H55.8527V8.46C56.2927 7.86 56.9027 7.38 57.6827 7.02C58.4627 6.66 59.3327 6.48 60.2927 6.48C61.3927 6.48 62.3627 6.73 63.2027 7.23C64.0627 7.73 64.7227 8.43 65.1827 9.33C65.6627 10.21 65.9027 11.21 65.9027 12.33V21.84H60.9527V13.5C60.9527 12.74 60.7127 12.11 60.2327 11.61C59.7527 11.11 59.1427 10.86 58.4027 10.86C57.9027 10.86 57.4627 10.98 57.0827 11.22C56.7027 11.44 56.4027 11.75 56.1827 12.15C55.9627 12.55 55.8527 13 55.8527 13.5V21.84H50.9027V6.72Z" fill="white"/>
<path d="M76.1873 10.8C75.3673 10.8 74.7273 11.1 74.2673 11.7C73.8073 12.3 73.5773 13.13 73.5773 14.19V21.84H68.6273V6.72H73.5773V9C73.9973 8.14 74.4873 7.55 75.0473 7.23C75.6273 6.89 76.3573 6.72 77.2373 6.72H78.8273V10.8H76.1873Z" fill="white"/>
<path d="M83.6896 16.86V21.84H78.4096V16.86H83.6896Z" fill="white"/>
</svg>
